HIERARCHY
ROOT Hips
{
	OFFSET 0.00000 0.00000 0.00000
	CHANNELS 6 Xposition Yposition Zposition Zrotation Yrotation Xrotation 
	JOINT LHipJoint
	{
		OFFSET 0 0 0
		CHANNELS 3 Zrotation Yrotation Xrotation
		JOINT LeftUpLeg
		{
			OFFSET 1.77779 -1.88989 0.48267
			CHANNELS 3 Zrotation Yrotation Xrotation
			JOINT LeftLeg
			{
				OFFSET 2.53442 -6.96327 0.00000
				CHANNELS 3 Zrotation Yrotation Xrotation
				JOINT LeftFoot
				{
					OFFSET 2.71068 -7.44755 0.00000
					CHANNELS 3 Zrotation Yrotation Xrotation
					JOINT LeftToeBase
					{
						OFFSET 0.17992 -0.49431 2.22524
						CHANNELS 3 Zrotation Yrotation Xrotation
						End Site
						{
							OFFSET 0.00000 -0.00000 1.14687
						}
					}
				}
			}
		}
	}
	JOINT RHipJoint
	{
		OFFSET 0 0 0
		CHANNELS 3 Zrotation Yrotation Xrotation
		JOINT RightUpLeg
		{
			OFFSET -1.58469 -1.88989 0.48267
			CHANNELS 3 Zrotation Yrotation Xrotation
			JOINT RightLeg
			{
				OFFSET -2.60386 -7.15404 0.00000
				CHANNELS 3 Zrotation Yrotation Xrotation
				JOINT RightFoot
				{
					OFFSET -2.73334 -7.50979 0.00000
					CHANNELS 3 Zrotation Yrotation Xrotation
					JOINT RightToeBase
					{
						OFFSET -0.25618 -0.70384 2.21822
						CHANNELS 3 Zrotation Yrotation Xrotation
						End Site
						{
							OFFSET -0.00000 -0.00000 1.16381
						}
					}
				}
			}
		}
	}
	JOINT LowerBack
	{
		OFFSET 0 0 0
		CHANNELS 3 Zrotation Yrotation Xrotation
		JOINT Spine
		{
			OFFSET 0.03410 2.01612 -0.22230
			CHANNELS 3 Zrotation Yrotation Xrotation
			JOINT Spine1
			{
				OFFSET 0.03465 2.03012 0.00937
				CHANNELS 3 Zrotation Yrotation Xrotation
				JOINT Neck
				{
					OFFSET 0 0 0
					CHANNELS 3 Zrotation Yrotation Xrotation
					JOINT Neck1
					{
						OFFSET -0.00219 1.70459 0.20857
						CHANNELS 3 Zrotation Yrotation Xrotation
						JOINT Head
						{
							OFFSET 0.02518 1.72339 -0.22179
							CHANNELS 3 Zrotation Yrotation Xrotation
							End Site
							{
								OFFSET 0.00282 1.74122 -0.09823
							}
						}
					}
				}
				JOINT LeftShoulder
				{
					OFFSET 0 0 0
					CHANNELS 3 Zrotation Yrotation Xrotation
					JOINT LeftArm
					{
						OFFSET 3.36358 1.00547 -0.37661
						CHANNELS 3 Zrotation Yrotation Xrotation
						JOINT LeftForeArm
						{
							OFFSET 5.06507 -0.00000 0.00000
							CHANNELS 3 Zrotation Yrotation Xrotation
							JOINT LeftHand
							{
								OFFSET 3.60196 -0.00000 0.00000
								CHANNELS 3 Zrotation Yrotation Xrotation
								JOINT LeftFingerBase
								{
									OFFSET 0 0 0
									CHANNELS 3 Zrotation Yrotation Xrotation
									JOINT LeftHandIndex1
									{
										OFFSET 0.45035 -0.00000 0.00000
										CHANNELS 3 Zrotation Yrotation Xrotation
										End Site
										{
											OFFSET 0.36308 -0.00000 0.00000
										}
									}
								}
								JOINT LThumb
								{
									OFFSET 0 0 0
									CHANNELS 3 Zrotation Yrotation Xrotation
									End Site
									{
										OFFSET 0.36862 -0.00000 0.36862
									}
								}
							}
						}
					}
				}
				JOINT RightShoulder
				{
					OFFSET 0 0 0
					CHANNELS 3 Zrotation Yrotation Xrotation
					JOINT RightArm
					{
						OFFSET -3.50159 0.80383 -0.71526
						CHANNELS 3 Zrotation Yrotation Xrotation
						JOINT RightForeArm
						{
							OFFSET -5.36394 -0.00000 0.00000
							CHANNELS 3 Zrotation Yrotation Xrotation
							JOINT RightHand
							{
								OFFSET -3.58035 -0.00000 0.00000
								CHANNELS 3 Zrotation Yrotation Xrotation
								JOINT RightFingerBase
								{
									OFFSET 0 0 0
									CHANNELS 3 Zrotation Yrotation Xrotation
									JOINT RightHandIndex1
									{
										OFFSET -0.66375 -0.00000 0.00000
										CHANNELS 3 Zrotation Yrotation Xrotation
										End Site
										{
											OFFSET -0.53513 -0.00000 0.00000
										}
									}
								}
								JOINT RThumb
								{
									OFFSET 0 0 0
									CHANNELS 3 Zrotation Yrotation Xrotation
									End Site
									{
										OFFSET -0.54330 -0.00000 0.54330
									}
								}
							}
						}
					}
				}
			}
		}
	}
}
MOTION
Frames: 7
Frame Time: .0083333
-0.4994 18.5610 7.5086 0.8960 -2.1120 5.5196 0.0000 0.0000 0.0000 -26.0172 2.7782 16.2035 1.8306 8.5038 24.2552 2.1930 -5.7412 30.4849 0.6955 -5.3311 -14.8554 0.0000 0.0000 0.0000 18.1242 16.9089 -39.4402 -6.3317 -14.7423 46.2990 -0.0188 -1.6399 -3.7196 -1.2366 7.0517 -19.8688 -2.3189 -1.1024 14.1994 1.0095 -1.7867 -2.2935 2.8166 -0.6763 -10.3875 -1.9819 -3.0472 -21.7113 2.6622 -3.9473 10.7865 0.7169 -1.7303 6.9013 0.0000 -0.0000 0.0000 -83.1197 2.9840 49.2418 146.4051 -43.7823 -106.1680 -0.0000 0.0000 -29.0928 30.1483 -3.0106 -1.7473 -7.1250 0.0000 -0.0000 2.6987 26.4975 -1.2124 0.0000 -0.0000 0.0000 84.2750 -34.3782 46.7556 -129.6934 53.1184 -93.5808 0.0000 -0.0000 -14.3582 -18.9115 33.4971 -10.7071 7.1250 -0.0000 -0.0000 7.4349 4.7339 8.0892
-0.4937 18.6113 8.0628 1.4878 -2.1858 5.6750 0.0000 0.0000 0.0000 -26.8521 2.3819 16.8168 1.9320 8.7229 24.9323 2.3532 -5.1539 31.1631 0.4566 -4.3349 -12.0209 0.0000 0.0000 0.0000 17.4868 17.0134 -38.4106 -5.1076 -13.5040 41.2855 0.0017 -2.5442 -3.5181 -1.0984 6.6597 -18.7110 -2.6577 -1.1969 13.8907 0.9050 -1.9736 -2.0871 2.9200 -0.7618 -9.9602 -2.0229 -2.9880 -22.8327 2.6268 -3.8356 11.0404 0.7125 -1.6692 7.1613 0.0000 -0.0000 0.0000 -83.1111 2.9779 49.4633 145.7893 -44.2402 -105.7402 -0.0000 0.0000 -28.9899 30.5211 -2.2793 -1.3431 -7.1250 0.0000 -0.0000 3.0198 27.3309 -1.2979 0.0000 -0.0000 0.0000 84.5901 -34.0229 45.9475 -130.0545 52.9735 -93.8694 0.0000 -0.0000 -14.6123 -19.1872 33.4932 -10.8703 7.1250 -0.0000 -0.0000 7.2816 4.7849 7.9257
-0.4927 18.6385 8.6062 2.6111 -2.0855 5.8048 0.0000 0.0000 0.0000 -28.1638 1.8964 17.3105 2.1423 9.1563 26.2855 2.2627 -6.4452 31.2843 0.6253 -5.0603 -14.0805 0.0000 0.0000 0.0000 16.3305 16.8137 -37.5434 -4.0663 -12.2481 36.6155 0.0384 -3.9130 -3.3385 -1.2243 7.0179 -19.7684 -3.5854 -1.2902 13.8434 0.6677 -2.2824 -2.1128 3.2541 -0.8653 -9.9172 -1.9752 -2.9377 -23.1858 2.4761 -3.7517 11.0943 0.6619 -1.6382 7.2289 -0.0000 0.0000 0.0000 -83.1308 3.3282 49.7459 144.9805 -44.8261 -105.1729 -0.0000 0.0000 -29.7201 30.4120 -2.3733 -1.3924 -7.1250 0.0000 -0.0000 2.9316 27.2253 -1.2672 -0.0000 0.0000 0.0000 84.9905 -34.0362 45.0630 -130.3858 52.8387 -94.1336 0.0000 -0.0000 -14.7465 -19.0017 33.8714 -10.8643 7.1250 -0.0000 -0.0000 7.4368 5.1272 8.1379
-0.4955 18.6447 9.1451 3.2055 -2.2339 5.8209 0.0000 0.0000 0.0000 -28.8990 1.6347 17.4081 2.5014 9.8404 28.4615 2.0432 -7.6092 30.6012 0.8805 -5.9820 -16.7323 0.0000 0.0000 0.0000 15.9888 16.7821 -36.4621 -3.1825 -10.9848 32.2287 0.0893 -5.3986 -3.1141 -1.9312 8.7213 -24.9274 -4.1212 -1.3116 13.9295 0.5893 -2.4158 -2.1094 3.5045 -0.9005 -9.9367 -2.0242 -2.8694 -23.5479 2.3860 -3.6277 11.3156 0.6512 -1.5854 7.3562 0.0000 0.0000 0.0000 -83.1640 3.9069 50.0934 144.1683 -45.3970 -104.5974 -0.0000 0.0000 -30.0915 30.7940 -1.8183 -1.0833 -7.1250 0.0000 -0.0000 3.2523 27.8586 -1.3576 0.0000 0.0000 0.0000 85.4261 -33.9869 44.2400 -130.6701 52.7217 -94.3600 0.0000 -0.0000 -14.7182 -19.2082 34.7216 -11.2241 7.1250 -0.0000 -0.0000 7.4451 6.0206 8.2517
-0.5063 18.6429 9.6771 3.0788 -2.3902 5.9843 0.0000 0.0000 0.0000 -28.8470 1.1730 16.8455 3.0249 10.7352 31.3921 1.7027 -7.8704 28.5632 1.3046 -7.2358 -20.4158 0.0000 0.0000 0.0000 16.3983 17.0678 -35.3921 -2.4640 -9.7721 28.2418 0.1521 -6.9396 -3.3560 -1.9953 8.8563 -25.3469 -4.0282 -1.3009 14.1380 0.7361 -2.3838 -2.2729 3.6179 -0.8731 -10.2393 -2.2011 -2.8427 -23.5937 2.4240 -3.5419 11.3332 0.7025 -1.5483 7.3714 -0.0000 -0.0000 0.0000 -83.3359 4.8472 50.5110 143.3230 -45.9731 -103.9926 -0.0000 0.0000 -30.2754 31.1388 -1.6151 -0.9755 -7.1250 0.0000 -0.0000 3.5284 28.0870 -1.4542 -0.0000 -0.0000 0.0000 85.9198 -33.9838 43.3987 -130.6755 52.7194 -94.3643 0.0000 -0.0000 -14.4126 -19.8676 35.2838 -11.7900 7.1250 -0.0000 -0.0000 7.1711 6.7203 8.0208
-0.5186 18.6377 10.2065 2.8449 -2.5403 6.0341 0.0000 0.0000 0.0000 -28.6294 0.6936 15.9901 3.6975 11.7466 34.8412 1.8552 -7.1843 29.1487 0.7273 -5.4492 -15.1942 0.0000 0.0000 0.0000 16.9658 17.2618 -34.1421 -1.9001 -8.6548 24.7214 0.1963 -7.8583 -3.6172 -1.7297 8.2788 -23.5643 -3.9049 -1.2754 14.4197 0.9137 -2.3226 -2.3309 3.7419 -0.8362 -10.4707 -2.2725 -2.7856 -23.5812 2.4363 -3.4401 11.1187 0.7323 -1.5032 7.2969 -0.0000 0.0000 0.0000 -83.5637 5.6163 50.6142 142.3214 -46.6328 -103.2685 -0.0000 0.0000 -30.7163 30.6135 -1.4709 -0.8702 -7.1250 0.0000 -0.0000 3.1295 28.2658 -1.2761 -0.0000 0.0000 0.0000 86.3278 -33.7549 42.7295 -130.5759 52.7606 -94.2851 0.0000 -0.0000 -14.0163 -20.5452 34.8411 -12.0854 7.1250 -0.0000 -0.0000 6.7346 6.4207 7.4948
-0.5253 18.6290 10.7420 2.7260 -2.6298 5.8604 0.0000 0.0000 0.0000 -28.5122 0.2240 15.2069 4.4815 12.7750 38.5319 2.0000 -6.1289 29.4789 0.3457 -3.7780 -10.4529 0.0000 0.0000 0.0000 17.5576 17.0885 -32.8282 -1.5049 -7.7481 21.9515 0.2105 -8.1048 -2.9845 -1.8516 8.5498 -24.3969 -3.7877 -1.2715 14.5633 1.0319 -2.2859 -2.1714 3.7974 -0.8267 -10.3790 -2.3614 -2.7933 -23.4433 2.4347 -3.4151 10.6610 0.7522 -1.4993 7.1237 0.0000 0.0000 0.0000 -83.8293 6.1057 50.7563 141.0719 -47.4218 -102.3542 -0.0000 0.0000 -30.9045 30.2208 -0.8956 -0.5217 -7.1250 0.0000 -0.0000 2.8490 28.9384 -1.1160 0.0000 0.0000 0.0000 86.6532 -33.2884 42.1143 -130.3721 52.8443 -94.1227 0.0000 -0.0000 -13.5882 -21.2952 33.9739 -12.2882 7.1250 -0.0000 -0.0000 6.1888 5.7091 6.8118
